<mxfile host="app.diagrams.net" modified="2024-03-12T01:36:17.051Z" agent="Mozilla/5.0 (Macintosh; Intel Mac OS X 10_15_7) AppleWebKit/537.36 (KHTML, like Gecko) Chrome/122.0.0.0 Safari/537.36" version="23.1.7" etag="O71sdIp0Lb0QBt4bVY2V" type="github">
  <diagram name="第 1 页" id="AhwA7_3tQPrvb8vTGNeQ">
    <mxGraphModel>
      <root>
        <mxCell id="0" />
        <mxCell id="1" parent="0" />
      </root>
    </mxGraphModel>
  </diagram>
</mxfile>
